<mxfile host="app.diagrams.net" modified="2023-08-25T23:35:07.957Z" agent="Mozilla/5.0 (X11; Linux x86_64) AppleWebKit/537.36 (KHTML, like Gecko) Chrome/114.0.0.0 Safari/537.36" etag="nwqxeXnG1XULQY77yHUd" version="21.5.0" type="device">
  <diagram name="PÃ¡gina-1" id="jlM7EFDPWfMhp8rhWsSb">
    <mxGraphModel dx="793" dy="497" grid="1" gridSize="10" guides="1" tooltips="1" connect="1" arrows="1" fold="1" page="1" pageScale="1" pageWidth="850" pageHeight="1100" math="0" shadow="0">
      <root>
        <mxCell id="0" />
        <mxCell id="1" parent="0" />
        <mxCell id="JzSjNMKLPWU6pae8eZmd-4" value="" style="edgeStyle=orthogonalEdgeStyle;rounded=0;orthogonalLoop=1;jettySize=auto;html=1;endArrow=none;endFill=0;" edge="1" parent="1" source="CRmV8F4R6-H90IGeiTNP-9" target="JzSjNMKLPWU6pae8eZmd-1">
          <mxGeometry relative="1" as="geometry" />
        </mxCell>
        <mxCell id="CRmV8F4R6-H90IGeiTNP-9" value="" style="rounded=0;whiteSpace=wrap;html=1;fillColor=default;" parent="1" vertex="1">
          <mxGeometry x="222.5" y="272.5" width="75" height="120" as="geometry" />
        </mxCell>
        <mxCell id="CRmV8F4R6-H90IGeiTNP-19" style="edgeStyle=orthogonalEdgeStyle;rounded=0;orthogonalLoop=1;jettySize=auto;html=1;exitX=1;exitY=0.5;exitDx=0;exitDy=0;exitPerimeter=0;endArrow=none;endFill=0;" parent="1" source="CRmV8F4R6-H90IGeiTNP-1" edge="1">
          <mxGeometry relative="1" as="geometry">
            <mxPoint x="220" y="340" as="targetPoint" />
          </mxGeometry>
        </mxCell>
        <mxCell id="CRmV8F4R6-H90IGeiTNP-1" value="" style="pointerEvents=1;verticalLabelPosition=bottom;shadow=0;dashed=0;align=center;html=1;verticalAlign=top;shape=mxgraph.electrical.signal_sources.source;aspect=fixed;points=[[0.5,0,0],[1,0.5,0],[0.5,1,0],[0,0.5,0]];elSignalType=square;" parent="1" vertex="1">
          <mxGeometry x="80" y="310" width="60" height="60" as="geometry" />
        </mxCell>
        <mxCell id="CRmV8F4R6-H90IGeiTNP-2" value="" style="html=1;shape=mxgraph.electrical.electro-mechanical.singleSwitch;aspect=fixed;elSwitchState=off;direction=south;" parent="1" vertex="1">
          <mxGeometry x="250" y="295" width="20" height="75" as="geometry" />
        </mxCell>
        <mxCell id="CRmV8F4R6-H90IGeiTNP-12" value="" style="edgeStyle=orthogonalEdgeStyle;rounded=0;orthogonalLoop=1;jettySize=auto;html=1;endArrow=none;endFill=0;" parent="1" source="CRmV8F4R6-H90IGeiTNP-4" target="CRmV8F4R6-H90IGeiTNP-7" edge="1">
          <mxGeometry relative="1" as="geometry" />
        </mxCell>
        <mxCell id="CRmV8F4R6-H90IGeiTNP-4" value="" style="pointerEvents=1;verticalLabelPosition=bottom;shadow=0;dashed=0;align=center;html=1;verticalAlign=top;shape=mxgraph.electrical.resistors.resistor_1;direction=south;" parent="1" vertex="1">
          <mxGeometry x="446.25" y="350" width="22.5" height="80" as="geometry" />
        </mxCell>
        <mxCell id="CRmV8F4R6-H90IGeiTNP-17" style="edgeStyle=orthogonalEdgeStyle;rounded=0;orthogonalLoop=1;jettySize=auto;html=1;exitX=0.5;exitY=0;exitDx=0;exitDy=0;exitPerimeter=0;entryX=0.5;entryY=1;entryDx=0;entryDy=0;endArrow=none;endFill=0;" parent="1" source="CRmV8F4R6-H90IGeiTNP-6" target="CRmV8F4R6-H90IGeiTNP-9" edge="1">
          <mxGeometry relative="1" as="geometry" />
        </mxCell>
        <mxCell id="CRmV8F4R6-H90IGeiTNP-6" value="" style="pointerEvents=1;verticalLabelPosition=bottom;shadow=0;dashed=0;align=center;html=1;verticalAlign=top;shape=mxgraph.electrical.signal_sources.signal_ground;" parent="1" vertex="1">
          <mxGeometry x="237.5" y="450" width="45" height="30" as="geometry" />
        </mxCell>
        <mxCell id="CRmV8F4R6-H90IGeiTNP-7" value="" style="pointerEvents=1;verticalLabelPosition=bottom;shadow=0;dashed=0;align=center;html=1;verticalAlign=top;shape=mxgraph.electrical.signal_sources.signal_ground;" parent="1" vertex="1">
          <mxGeometry x="435" y="450" width="45" height="30" as="geometry" />
        </mxCell>
        <mxCell id="CRmV8F4R6-H90IGeiTNP-18" style="edgeStyle=orthogonalEdgeStyle;rounded=0;orthogonalLoop=1;jettySize=auto;html=1;exitX=0.5;exitY=0;exitDx=0;exitDy=0;exitPerimeter=0;endArrow=none;endFill=0;" parent="1" source="CRmV8F4R6-H90IGeiTNP-8" edge="1">
          <mxGeometry relative="1" as="geometry">
            <mxPoint x="260" y="270" as="targetPoint" />
          </mxGeometry>
        </mxCell>
        <mxCell id="CRmV8F4R6-H90IGeiTNP-8" value="V&lt;sub&gt;dd&lt;/sub&gt;" style="verticalLabelPosition=top;verticalAlign=bottom;shape=mxgraph.electrical.signal_sources.vdd;shadow=0;dashed=0;align=center;strokeWidth=1;fontSize=24;html=1;flipV=1;" parent="1" vertex="1">
          <mxGeometry x="230" y="220" width="60" height="40" as="geometry" />
        </mxCell>
        <mxCell id="JzSjNMKLPWU6pae8eZmd-6" style="edgeStyle=orthogonalEdgeStyle;rounded=0;orthogonalLoop=1;jettySize=auto;html=1;exitX=1;exitY=0.5;exitDx=0;exitDy=0;exitPerimeter=0;entryX=0;entryY=0.5;entryDx=0;entryDy=0;entryPerimeter=0;endArrow=none;endFill=0;" edge="1" parent="1" source="JzSjNMKLPWU6pae8eZmd-1" target="CRmV8F4R6-H90IGeiTNP-4">
          <mxGeometry relative="1" as="geometry">
            <Array as="points">
              <mxPoint x="458" y="333" />
            </Array>
          </mxGeometry>
        </mxCell>
        <mxCell id="JzSjNMKLPWU6pae8eZmd-1" value="" style="verticalLabelPosition=bottom;shadow=0;dashed=0;align=center;html=1;verticalAlign=top;shape=mxgraph.electrical.logic_gates.highpass_filter;" vertex="1" parent="1">
          <mxGeometry x="350" y="307.25" width="60" height="50.5" as="geometry" />
        </mxCell>
      </root>
    </mxGraphModel>
  </diagram>
</mxfile>
